<svg width="63" height="45" viewBox="0 0 63 45" fill="none" xmlns="http://www.w3.org/2000/svg">
<path d="M11.4286 22.7783C11.1987 22.368 10.9864 21.9459 10.78 21.5178C10.5736 21.0956 10.3555 20.6735 10.155 20.2454C9.74224 19.3297 9.1526 18.5389 8.51578 17.879C8.19148 17.5519 7.8377 17.2665 7.46622 17.0287C7.10654 16.7849 6.72917 16.5887 6.34001 16.446C5.42017 16.119 4.48264 15.7682 3.58049 15.358C2.67244 14.9536 1.73491 14.5315 0.832764 14.0439C1.02145 14.8169 1.2632 15.5542 1.48137 16.3152C1.70543 17.0703 1.98257 17.7898 2.23021 18.5211C2.44838 19.1692 2.77858 19.74 3.12057 20.2632C3.29746 20.5248 3.48025 20.7686 3.66894 21.0005C3.86941 21.2205 4.08169 21.4286 4.29396 21.6129C4.7244 21.9815 5.17252 22.2788 5.63244 22.481C6.09236 22.6831 6.56997 22.7842 7.03578 22.7961C8.51578 22.8318 9.9663 22.8318 11.4286 22.7664V22.7783Z" fill="#E9C75B"/>
<path d="M5.80344 18.5625C7.52519 19.0679 8.90495 20.1263 9.88375 21.0479C10.379 21.5057 10.7564 21.9397 11.0159 22.2608C11.2871 22.5759 11.4286 22.7781 11.4286 22.7781C9.96041 22.8435 8.51578 22.8435 7.03578 22.8078C6.57586 22.7959 6.09826 22.6889 5.63244 22.4927C5.17252 22.2905 4.7244 21.9932 4.29396 21.6246C4.08169 21.4403 3.86941 21.2322 3.66894 21.0122C3.47435 20.7863 3.29156 20.5365 3.12057 20.2749C2.77858 19.7457 2.44838 19.1809 2.23021 18.5328C1.97667 17.7955 1.69953 17.0761 1.48137 16.3269C1.2632 15.5718 1.02145 14.8286 0.832764 14.0557C0.832764 14.0557 0.85635 14.1092 0.897625 14.2103C0.938899 14.3113 1.00376 14.454 1.104 14.6205C1.29858 14.9654 1.5875 15.4351 1.98846 15.9464C2.37762 16.4637 2.9142 16.981 3.55101 17.4507C3.86941 17.6826 4.21141 17.9026 4.58288 18.0928C4.96025 18.2831 5.373 18.4377 5.80344 18.5625Z" fill="#D0B25A"/>
<path d="M12.1007 22.4155C11.8707 22.0112 11.6644 21.595 11.458 21.1728C11.2516 20.7566 11.0394 20.3404 10.8389 19.9183C10.432 19.0145 10.208 18.0632 10.2492 17.1654C10.261 16.7194 10.3259 16.2854 10.4438 15.887C10.5735 15.4827 10.7504 15.1081 10.9804 14.7811C11.517 14.0022 12.0476 13.259 12.6373 12.5336C13.2269 11.8142 13.7871 11.1245 14.418 10.4705C14.5418 10.9937 14.7246 11.5229 14.872 12.0461C15.0253 12.5753 15.2376 13.0985 15.4086 13.6277C15.556 14.0914 15.7034 14.5611 15.7447 15.0368C15.7683 15.2746 15.7801 15.5125 15.7742 15.7503C15.7742 15.9881 15.7742 16.22 15.7447 16.4519C15.6916 16.9157 15.5796 17.3675 15.4027 17.7956C15.2317 18.2178 15.0194 18.6161 14.7305 18.961C13.8284 20.0728 12.9262 21.2382 12.0889 22.4155H12.1007Z" fill="#E9C75B"/>
<path d="M12.6845 15.7979C11.6939 17.207 11.5229 18.8837 11.629 20.1918C11.688 20.8399 11.8 21.4047 11.9003 21.7971C12.0123 22.1895 12.1007 22.4155 12.1007 22.4155C12.938 21.2323 13.8343 20.0728 14.7423 18.961C15.0254 18.6102 15.2435 18.2178 15.4145 17.7956C15.5855 17.3675 15.7035 16.9157 15.7565 16.4519C15.7801 16.22 15.7919 15.9881 15.786 15.7503C15.786 15.5125 15.786 15.2746 15.7565 15.0368C15.7152 14.5611 15.5678 14.0914 15.4204 13.6277C15.2435 13.0985 15.0313 12.5753 14.8838 12.0461C14.7364 11.5169 14.5537 10.9937 14.4298 10.4705C14.4298 10.4705 14.4298 10.5121 14.4298 10.5834C14.4298 10.6607 14.4298 10.7677 14.4239 10.9104C14.418 11.1899 14.3826 11.5942 14.2765 12.0818C14.1586 12.5693 14.0289 13.146 13.7753 13.7763C13.6515 14.0914 13.4982 14.4184 13.3095 14.7573C13.1326 15.0963 12.9321 15.4411 12.6845 15.7919V15.7979Z" fill="#D0B25A"/>
<path d="M16.004 30.1212L15.1903 28.9677L14.4061 27.7905C13.3094 26.1197 11.6938 24.9425 10.0723 24.663C9.12293 24.5025 8.15003 24.3241 7.18301 24.116C6.2278 23.9019 5.25489 23.6641 4.28198 23.4084L5.29027 25.4241L6.35752 27.3862C7.64883 29.6634 9.8364 30.9833 11.6584 30.7515C13.1089 30.579 14.5712 30.359 15.9981 30.1212H16.004Z" fill="#E9C75B"/>
<path d="M9.87776 26.8036C10.7622 26.9046 11.5818 27.1662 12.3189 27.4933C12.6845 27.6597 13.0264 27.8441 13.3507 28.0343C13.675 28.2246 13.9758 28.4208 14.247 28.6111C14.7895 29.0035 15.2258 29.3781 15.5324 29.6516C15.839 29.931 16.0041 30.1153 16.0041 30.1153C14.5772 30.3532 13.1149 30.5791 11.6644 30.7456C9.84238 30.9775 7.65481 29.6575 6.3635 27.3803L5.29625 25.4182L4.28796 23.4026C4.28796 23.4026 4.78916 24.1458 5.72668 24.9663C6.6878 25.7631 8.09704 26.6133 9.87776 26.7976V26.8036Z" fill="#D0B25A"/>
<path d="M16.6231 29.6752L15.8212 28.5336L15.0488 27.3683C13.9579 25.7035 13.7103 23.6997 14.3825 22.2311C14.7835 21.3631 15.1785 20.5188 15.603 19.6923C16.0394 18.8599 16.4875 18.0513 16.9415 17.2605L17.7199 18.8183L18.563 20.3642C19.5772 22.1539 19.7011 24.3181 18.7812 25.8818C18.0265 27.1245 17.3248 28.385 16.629 29.6752H16.6231Z" fill="#E9C75B"/>
<path d="M16.2341 22.9803C15.8567 23.7652 15.6916 24.5797 15.6621 25.3586C15.6444 25.7451 15.6503 26.1316 15.6857 26.4943C15.727 26.8569 15.786 27.2018 15.8567 27.5229C15.9923 28.165 16.1869 28.7061 16.3461 29.0807C16.5053 29.4552 16.6173 29.6752 16.6173 29.6752C17.3131 28.385 18.0148 27.1304 18.7695 25.8818C19.6953 24.3181 19.5714 22.1539 18.5514 20.3642L17.7082 18.8183L16.9299 17.2605C16.9299 17.2605 17.1303 17.9145 17.1126 18.955C17.1303 19.9896 16.9475 21.4166 16.2223 22.9803H16.2341Z" fill="#D0B25A"/>
<path d="M21.3757 36.8875C20.7507 36.18 20.1493 35.4606 19.5478 34.7411C18.2801 33.2012 16.5407 32.2142 14.8956 32.1607C12.9616 32.0953 11.0039 31.9585 9.03455 31.7385C9.4414 32.345 9.84236 32.9574 10.2669 33.546C10.6855 34.1466 11.1042 34.7352 11.5405 35.3119C13.0618 37.3632 15.3378 38.4156 17.1303 37.9816C18.5572 37.6486 19.9783 37.28 21.3757 36.8875Z" fill="#E9C75B"/>
<path d="M14.9428 34.2952C16.7235 34.2655 18.3096 34.9314 19.4771 35.5795C20.0608 35.9065 20.5325 36.2335 20.8627 36.4773C21.1929 36.7211 21.3757 36.8875 21.3757 36.8875C19.9783 37.274 18.5572 37.6427 17.1303 37.9816C15.3378 38.4156 13.0618 37.3632 11.5405 35.3119C11.1042 34.7352 10.6855 34.1406 10.2669 33.546C9.84236 32.9574 9.4414 32.345 9.03455 31.7385C9.03455 31.7385 9.17606 31.8991 9.4473 32.1488C9.71853 32.3985 10.1136 32.7255 10.6384 33.0466C11.6643 33.7006 13.162 34.3249 14.9428 34.3011V34.2952Z" fill="#D0B25A"/>
<path d="M21.9477 36.3762C21.3285 35.6746 20.733 34.9611 20.1316 34.2477C18.8697 32.7136 18.3921 30.7456 18.8638 29.2057C19.424 27.3803 20.0313 25.6025 20.7212 23.8723C21.0514 24.3718 21.3816 24.8712 21.7354 25.3647C22.0774 25.8582 22.4312 26.3517 22.7967 26.8392C24.0586 28.5397 24.43 30.7159 23.6812 32.3688C23.0739 33.6888 22.496 35.0206 21.9418 36.3762H21.9477Z" fill="#E9C75B"/>
<path d="M20.8097 29.7407C20.2673 31.3936 20.5326 33.0703 20.963 34.3189C21.1753 34.9432 21.417 35.4605 21.6175 35.8172C21.8121 36.174 21.9536 36.3821 21.9536 36.3821C22.5138 35.0265 23.0857 33.6946 23.6931 32.3747C24.436 30.7217 24.0645 28.5456 22.8086 26.8451C22.443 26.3576 22.0951 25.87 21.7472 25.3706C21.3935 24.8771 21.0633 24.3776 20.7331 23.8782C20.7331 23.8782 20.8038 24.0387 20.8982 24.336C20.9866 24.6333 21.0927 25.0554 21.1753 25.5787C21.3286 26.6311 21.364 28.0878 20.8215 29.7407H20.8097Z" fill="#D0B25A"/>
<path d="M27.3665 43.0293C26.659 42.3931 25.9868 41.745 25.3146 41.0791C23.8936 39.6759 22.0716 38.8673 20.4324 38.9743C18.5042 39.111 16.5584 39.1824 14.5831 39.1943C15.503 40.3002 16.4405 41.3883 17.4075 42.4526C19.0998 44.3314 21.4937 45.1519 23.2332 44.5514C24.6247 44.0757 26.0045 43.5763 27.3606 43.0293H27.3665Z" fill="#E9C75B"/>
<path d="M20.686 41.0911C22.449 40.889 24.0941 41.3884 25.3205 41.9235C25.9338 42.1911 26.4408 42.4646 26.7946 42.6727C27.1484 42.8808 27.3548 43.0235 27.3548 43.0235C25.9986 43.5705 24.6189 44.0699 23.2273 44.5456C21.4879 45.1461 19.0939 44.3197 17.4016 42.4468C16.4346 41.3884 15.4971 40.2944 14.5773 39.1885C14.5773 39.1885 14.7365 39.3312 15.0313 39.5452C15.3261 39.7533 15.7448 40.0387 16.2931 40.3003C17.3781 40.8295 18.9111 41.2992 20.686 41.0911Z" fill="#D0B25A"/>
<path d="M27.8677 42.4468C27.1837 41.8344 26.5115 41.1863 25.8511 40.5263C24.4419 39.1291 23.7756 37.2205 24.094 35.633C24.4596 33.7601 24.89 31.9169 25.3676 30.1094C26.1519 31.0488 26.9479 31.9763 27.7734 32.8801C29.2062 34.4736 29.784 36.5724 29.1944 38.2907C28.7227 39.6583 28.2687 41.0377 27.8677 42.4409V42.4468Z" fill="#E9C75B"/>
<path d="M26.0811 35.9777C25.7038 37.6782 26.1283 39.3252 26.6767 40.5144C26.9479 41.1089 27.2427 41.5965 27.4786 41.9294C27.7086 42.2684 27.8678 42.4467 27.8678 42.4467C28.2687 41.0435 28.7227 39.6641 29.1944 38.2966C29.7841 36.5783 29.2062 34.4794 27.7734 32.886C26.9479 31.9822 26.1519 31.0547 25.3677 30.1152C25.3677 30.1152 25.462 30.2698 25.5858 30.5552C25.7156 30.8406 25.863 31.2628 26.0045 31.78C26.2757 32.8206 26.4585 34.2773 26.087 35.9777H26.0811Z" fill="#D0B25A"/>
<path d="M4.41187 10.625C4.32932 10.0424 4.28804 9.45968 4.29983 8.89483C4.34111 8.32404 4.42366 7.77109 4.54748 7.24786C4.65951 6.73058 4.86589 6.23708 5.10764 5.79115C5.3435 5.34522 5.62063 4.94685 5.92724 4.60795C6.11003 4.3939 6.3341 4.1858 6.53457 3.98364C6.73505 4.19174 6.91784 4.38795 7.13601 4.59011C8.49218 5.86845 9.35895 7.61055 9.85425 9.55481C9.88963 9.71535 9.91911 9.86994 9.96039 10.0305L10.0901 10.5002L10.3554 11.4396C10.4439 11.7845 10.4911 12.1353 10.4675 12.4682C10.4439 12.8071 10.3496 13.1282 10.1903 13.4017L9.82477 14.0498L9.48278 14.7098C9.25871 15.1498 9.03465 15.6016 8.81649 16.0654C8.36246 15.8573 7.90844 15.6373 7.44852 15.4114L6.75864 15.0665L6.08644 14.6979C5.79752 14.5374 5.53218 14.2817 5.31402 13.9725C5.09585 13.6574 4.91896 13.2887 4.8423 12.8785L4.61234 11.7607L4.50031 11.2018C4.46494 11.0115 4.44135 10.8213 4.41187 10.6369V10.625Z" fill="#E9C75B"/>
<path d="M4.41195 10.6249C4.32351 10.0244 4.28223 9.42388 4.29992 8.8412C4.34119 8.25257 4.43554 7.68772 4.57115 7.1526C4.57115 7.52124 4.58884 7.88988 4.61833 8.26446L4.6714 8.8293L4.75395 9.38821L4.92494 10.506C4.97801 10.9163 5.11363 11.2968 5.29641 11.6238C5.47331 11.9508 5.68558 12.2243 5.91554 12.4146C6.61721 13.0032 7.40143 13.5264 8.13259 14.0437C8.48047 13.1935 8.79298 12.3789 9.20573 11.5762C9.32956 11.3206 9.40621 11.0114 9.4239 10.6784C9.43569 10.3455 9.40031 9.99467 9.33545 9.63793L9.13498 8.66877L9.03473 8.18716L8.96398 7.69961C8.91681 7.3726 8.85195 7.05747 8.7753 6.74829C9.02294 7.17639 9.22932 7.62826 9.39442 8.09798C9.5831 8.56769 9.7482 9.0493 9.85434 9.55469C9.88971 9.71522 9.9192 9.86981 9.96047 10.0303L10.0902 10.5001L10.3555 11.4395C10.444 11.7843 10.4911 12.1351 10.4676 12.4681C10.444 12.807 10.3496 13.1281 10.1904 13.4016L9.82486 14.0497L9.48286 14.7097C9.2588 15.1496 9.03474 15.6015 8.81657 16.0653C8.36255 15.8572 7.90852 15.6372 7.4486 15.4113L6.75872 15.0664L6.08653 14.6978C5.79761 14.5372 5.53227 14.2816 5.3141 13.9724C5.09594 13.6573 4.91904 13.2886 4.84239 12.8784L4.61243 11.7606L4.5004 11.2017C4.46502 11.0114 4.44143 10.8211 4.41195 10.6368V10.6249Z" fill="#D0B25A"/>
<path d="M51.5714 18.7946C51.8014 18.3844 52.0136 17.9622 52.22 17.5341C52.4264 17.112 52.6446 16.6898 52.845 16.2617C53.2578 15.3461 53.8474 14.5553 54.4842 13.8953C54.8085 13.5683 55.1623 13.2829 55.5338 13.0451C55.8935 12.8013 56.2709 12.6051 56.66 12.4624C57.5799 12.1354 58.5174 11.7846 59.4195 11.3743C60.3276 10.97 61.2651 10.5479 62.1673 10.0603C61.9786 10.8333 61.7368 11.5705 61.5187 12.3316C61.2946 13.0867 61.0175 13.8061 60.7698 14.5375C60.5516 15.1855 60.2214 15.7563 59.8794 16.2796C59.7026 16.5412 59.5198 16.7849 59.3311 17.0168C59.1306 17.2368 58.9183 17.4449 58.7061 17.6292C58.2756 17.9979 57.8275 18.2952 57.3676 18.4973C56.9077 18.6995 56.4301 18.8006 55.9642 18.8124C54.4842 18.8481 53.0337 18.8481 51.5714 18.7827V18.7946Z" fill="#E9C75B"/>
<path d="M57.1966 14.573C55.4748 15.0784 54.0951 16.1368 53.1163 17.0584C52.621 17.5162 52.2436 17.9502 51.9842 18.2713C51.7129 18.5864 51.5714 18.7886 51.5714 18.7886C53.0396 18.854 54.4842 18.854 55.9642 18.8183C56.4242 18.8064 56.9018 18.6994 57.3676 18.5032C57.8275 18.301 58.2756 18.0037 58.7061 17.6351C58.9183 17.4508 59.1306 17.2427 59.3311 17.0227C59.5257 16.7968 59.7085 16.547 59.8794 16.2854C60.2214 15.7562 60.5516 15.1914 60.7698 14.5433C61.0234 13.806 61.3005 13.0866 61.5187 12.3374C61.7368 11.5823 61.9786 10.8391 62.1673 10.0662C62.1673 10.0662 62.1437 10.1197 62.1024 10.2208C62.0611 10.3218 61.9963 10.4645 61.896 10.631C61.7014 10.9759 61.4125 11.4456 61.0116 11.9569C60.6224 12.4742 60.0858 12.9915 59.449 13.4612C59.1306 13.6931 58.7886 13.9131 58.4171 14.1033C58.0398 14.2936 57.627 14.4482 57.1966 14.573Z" fill="#D0B25A"/>
<path d="M50.8991 18.426C51.129 18.0217 51.3354 17.6055 51.5418 17.1833C51.7482 16.7671 51.9604 16.3509 52.1609 15.9288C52.5678 15.025 52.7918 14.0737 52.7506 13.1759C52.7388 12.7299 52.6739 12.2959 52.556 11.8975C52.4263 11.4932 52.2494 11.1186 52.0194 10.7916C51.4828 10.0127 50.9521 9.26952 50.3625 8.54413C49.7729 7.8247 49.2127 7.13499 48.5818 6.48096C48.458 7.00418 48.2752 7.53336 48.1278 8.05658C47.9745 8.58575 47.7622 9.10898 47.5912 9.63815C47.4438 10.1019 47.2964 10.5716 47.2551 11.0473C47.2315 11.2851 47.2197 11.523 47.2256 11.7608C47.2256 11.9986 47.2256 12.2305 47.2551 12.4624C47.3082 12.9262 47.4202 13.378 47.5971 13.8061C47.7681 14.2283 47.9804 14.6266 48.2693 14.9715C49.1714 16.0833 50.0736 17.2487 50.9109 18.426H50.8991Z" fill="#E9C75B"/>
<path d="M50.3154 11.8084C51.306 13.2175 51.477 14.8942 51.3709 16.2023C51.3119 16.8503 51.1999 17.4152 51.0996 17.8076C50.9876 18.2 50.8992 18.426 50.8992 18.426C50.0619 17.2428 49.1656 16.0833 48.2576 14.9715C47.9745 14.6207 47.7564 14.2283 47.5854 13.8061C47.4144 13.378 47.2965 12.9262 47.2434 12.4624C47.2198 12.2305 47.208 11.9986 47.2139 11.7608C47.2139 11.523 47.2139 11.2851 47.2434 11.0473C47.2847 10.5716 47.4321 10.1019 47.5795 9.63815C47.7564 9.10898 47.9686 8.58575 48.1161 8.05658C48.2635 7.52741 48.4463 7.00418 48.5701 6.48096C48.5701 6.48096 48.5701 6.52258 48.5701 6.59393C48.5701 6.67122 48.5701 6.77824 48.576 6.92094C48.5819 7.20039 48.6172 7.6047 48.7234 8.09226C48.8413 8.57981 48.971 9.15655 49.2246 9.78679C49.3484 10.1019 49.5017 10.4289 49.6904 10.7678C49.8673 11.1068 50.0678 11.4516 50.3154 11.8024V11.8084Z" fill="#D0B25A"/>
<path d="M46.9957 26.1376L47.8094 24.9841L48.5936 23.8068C49.6904 22.1361 51.306 20.9588 52.9275 20.6794C53.8768 20.5188 54.8497 20.3404 55.8168 20.1323C56.772 19.9183 57.7449 19.6805 58.7178 19.4248L57.7095 21.4404L56.6423 23.4025C55.3509 25.6797 53.1634 26.9997 51.3414 26.7678C49.8909 26.5954 48.4286 26.3754 47.0016 26.1376H46.9957Z" fill="#E9C75B"/>
<path d="M53.1221 22.8138C52.2376 22.9149 51.418 23.1765 50.681 23.5035C50.3154 23.67 49.9734 23.8543 49.6491 24.0446C49.3248 24.2348 49.0241 24.4311 48.7529 24.6213C48.2104 25.0137 47.7741 25.3883 47.4674 25.6618C47.1608 25.9413 46.9957 26.1256 46.9957 26.1256C48.4227 26.3634 49.885 26.5894 51.3355 26.7558C53.1575 26.9877 55.345 25.6678 56.6364 23.3905L57.7036 21.4285L58.7119 19.4128C58.7119 19.4128 58.2107 20.1561 57.2732 20.9766C56.312 21.7733 54.9028 22.6235 53.1221 22.8079V22.8138Z" fill="#D0B25A"/>
<path d="M46.3767 25.6857L47.1786 24.5441L47.9511 23.3788C49.0419 21.714 49.2895 19.7102 48.6174 18.2416C48.2164 17.3736 47.8213 16.5293 47.3968 15.7028C46.9605 14.8704 46.5123 14.0618 46.0583 13.271L45.28 14.8288L44.4368 16.3747C43.4226 18.1643 43.2988 20.3286 44.2186 21.8923C44.9734 23.135 45.675 24.3955 46.3708 25.6857H46.3767Z" fill="#E9C75B"/>
<path d="M46.7658 18.9908C47.1432 19.7756 47.3083 20.5902 47.3378 21.3691C47.3554 21.7556 47.3495 22.1421 47.3142 22.5047C47.2729 22.8674 47.2139 23.2123 47.1432 23.5334C47.0076 24.1755 46.813 24.7166 46.6538 25.0912C46.4946 25.4657 46.3825 25.6857 46.3825 25.6857C45.6868 24.3955 44.9851 23.1409 44.2303 21.8923C43.3046 20.3286 43.4284 18.1643 44.4485 16.3747L45.2917 14.8288L46.07 13.271C46.07 13.271 45.8695 13.925 45.8872 14.9655C45.8695 16.0001 46.0523 17.4271 46.7776 18.9908H46.7658Z" fill="#D0B25A"/>
<path d="M41.6243 32.8978C42.2493 32.1903 42.8507 31.4708 43.4522 30.7514C44.7199 29.2114 46.4593 28.2244 48.1044 28.1709C50.0384 28.1055 51.996 27.9688 53.9654 27.7488C53.5586 28.3552 53.1576 28.9677 52.7331 29.5563C52.3145 30.1568 51.8958 30.7454 51.4595 31.3222C49.9382 33.3735 47.6622 34.4259 45.8697 33.9918C44.4427 33.6589 43.0217 33.2902 41.6243 32.8978Z" fill="#E9C75B"/>
<path d="M48.063 30.3055C46.2823 30.2757 44.6961 30.9416 43.5286 31.5897C42.9449 31.9168 42.4732 32.2438 42.143 32.4875C41.8128 32.7313 41.63 32.8978 41.63 32.8978C43.0275 33.2843 44.4485 33.6529 45.8754 33.9918C47.6679 34.4259 49.9439 33.3735 51.4652 31.3222C51.9016 30.7454 52.3202 30.1509 52.7388 29.5563C53.1634 28.9677 53.5643 28.3552 53.9712 27.7488C53.9712 27.7488 53.8297 27.9093 53.5584 28.159C53.2872 28.4088 52.8922 28.7358 52.3674 29.0568C51.3414 29.7109 49.8437 30.3352 48.063 30.3114V30.3055Z" fill="#D0B25A"/>
<path d="M41.0582 32.3865C41.6773 31.6849 42.2729 30.9714 42.8743 30.2579C44.1361 28.7239 44.6137 26.7559 44.142 25.2159C43.5819 23.3906 42.9745 21.6128 42.2846 19.8826C41.9544 20.382 41.6242 20.8815 41.2705 21.375C40.9285 21.8684 40.5747 22.3619 40.2091 22.8495C38.9473 24.55 38.5758 26.7261 39.3247 28.379C39.932 29.699 40.5098 31.0309 41.0641 32.3865H41.0582Z" fill="#E9C75B"/>
<path d="M42.1902 25.7509C42.7327 27.4039 42.4673 29.0806 42.0369 30.3292C41.8246 30.9535 41.5829 31.4708 41.3824 31.8275C41.1878 32.1842 41.0463 32.3923 41.0463 32.3923C40.4861 31.0367 39.9142 29.7049 39.3069 28.3849C38.5639 26.732 38.9354 24.5558 40.1913 22.8554C40.5569 22.3678 40.9048 21.8803 41.2527 21.3808C41.6065 20.8873 41.9367 20.3879 42.2669 19.8884C42.2669 19.8884 42.1961 20.049 42.1018 20.3463C42.0133 20.6435 41.9072 21.0657 41.8246 21.5889C41.6713 22.6413 41.6359 24.098 42.1784 25.7509H42.1902Z" fill="#D0B25A"/>
<path d="M35.6394 39.0398C36.347 38.4036 37.0192 37.7555 37.6914 37.0896C39.1124 35.6864 40.9344 34.8778 42.5736 34.9848C44.5017 35.1215 46.4475 35.1929 48.4228 35.2048C47.503 36.3107 46.5655 37.3988 45.5984 38.4631C43.9062 40.3419 41.5122 41.1624 39.7728 40.5619C38.3812 40.0862 37.0015 39.5868 35.6453 39.0398H35.6394Z" fill="#E9C75B"/>
<path d="M42.314 37.1075C40.551 36.9053 38.9059 37.4048 37.6794 37.9399C37.0662 38.2074 36.5591 38.4809 36.2053 38.689C35.8515 38.8971 35.6451 39.0398 35.6451 39.0398C37.0013 39.5869 38.3811 40.0863 39.7726 40.562C41.5121 41.1625 43.906 40.336 45.5983 38.4631C46.5653 37.4048 47.5028 36.3107 48.4227 35.2048C48.4227 35.2048 48.2635 35.3475 47.9686 35.5616C47.6738 35.7697 47.2552 36.0551 46.7068 36.3167C45.6219 36.8459 44.0888 37.3156 42.314 37.1075Z" fill="#D0B25A"/>
<path d="M35.1381 38.4632C35.8221 37.8508 36.4943 37.2027 37.1547 36.5427C38.5639 35.1454 39.2302 33.2369 38.9118 31.6493C38.5462 29.7764 38.1158 27.9332 37.6382 26.1257C36.854 27.0652 36.058 27.9927 35.2325 28.8965C33.7996 30.4899 33.2218 32.5888 33.8114 34.3071C34.2831 35.6746 34.7372 37.054 35.1381 38.4572V38.4632Z" fill="#E9C75B"/>
<path d="M36.9189 31.9882C37.2962 33.6887 36.8717 35.3357 36.3233 36.5249C36.0521 37.1194 35.7573 37.607 35.5214 37.9399C35.2914 38.2788 35.1323 38.4572 35.1323 38.4572C34.7313 37.054 34.2773 35.6746 33.8056 34.3071C33.2159 32.5888 33.7938 30.4899 35.2266 28.8965C36.0521 27.9927 36.8481 27.0652 37.6323 26.1257C37.6323 26.1257 37.538 26.2803 37.4142 26.5657C37.2844 26.8511 37.137 27.2733 36.9955 27.7905C36.7243 28.831 36.5415 30.2878 36.913 31.9882H36.9189Z" fill="#D0B25A"/>
<path d="M58.5881 6.6414C58.6707 6.05872 58.712 5.47604 58.7002 4.91119C58.6589 4.3404 58.5763 3.78744 58.4525 3.26422C58.3405 2.74694 58.1341 2.25344 57.8924 1.80751C57.6565 1.36158 57.3794 0.963212 57.0728 0.624304C56.89 0.410257 56.6659 0.202156 56.4654 0C56.265 0.208101 56.0822 0.404311 55.864 0.606467C54.5078 1.8848 53.6411 3.62691 53.1458 5.57117C53.1104 5.7317 53.0809 5.88629 53.0396 6.04683L52.9099 6.51654L52.6446 7.45597C52.5561 7.80083 52.5089 8.15163 52.5325 8.48459C52.5561 8.82349 52.6505 9.14457 52.8097 9.41807L53.1752 10.0662L53.5172 10.7261C53.7413 11.1661 53.9654 11.618 54.1835 12.0818C54.6375 11.8737 55.0916 11.6537 55.5515 11.4277L56.2414 11.0829L56.9136 10.7142C57.2025 10.5537 57.4678 10.298 57.686 9.98886C57.9042 9.67374 58.081 9.3051 58.1577 8.89484L58.3877 7.77704L58.4997 7.21814C58.5351 7.02788 58.5587 6.83761 58.5881 6.6533V6.6414Z" fill="#E9C75B"/>
<path d="M58.5881 6.64128C58.6766 6.04076 58.7179 5.44024 58.7002 4.85755C58.6589 4.26892 58.5646 3.70408 58.4289 3.16896C58.4289 3.5376 58.4112 3.90623 58.3818 4.28082L58.3287 4.84566L58.2462 5.40456L58.0752 6.52236C58.0221 6.93262 57.8865 7.31315 57.7037 7.64017C57.5268 7.96718 57.3145 8.24069 57.0846 8.43095C56.3829 9.01958 55.5987 9.54281 54.8675 10.0601C54.5196 9.20984 54.2071 8.39528 53.7944 7.5926C53.6705 7.33693 53.5939 7.02775 53.5762 6.69479C53.5644 6.36183 53.5998 6.01103 53.6646 5.65428L53.8651 4.68513L53.9654 4.20352L54.0361 3.71597C54.0833 3.38895 54.1481 3.07383 54.2248 2.76465C53.9771 3.19274 53.7708 3.64462 53.6057 4.11433C53.417 4.58405 53.2519 5.06565 53.1458 5.57104C53.1104 5.73158 53.0809 5.88617 53.0396 6.0467L52.9099 6.51642L52.6446 7.45585C52.5561 7.8007 52.5089 8.1515 52.5325 8.48446C52.5561 8.82337 52.6505 9.14444 52.8097 9.41795L53.1752 10.066L53.5172 10.726C53.7413 11.166 53.9654 11.6179 54.1835 12.0816C54.6375 11.8735 55.0916 11.6535 55.5515 11.4276L56.2414 11.0828L56.9136 10.7141C57.2025 10.5536 57.4678 10.2979 57.686 9.98874C57.9042 9.67361 58.081 9.30498 58.1577 8.89472L58.3877 7.77692L58.4997 7.21802C58.5351 7.02775 58.5587 6.83749 58.5881 6.65317V6.64128Z" fill="#D0B25A"/>
</svg>
