<svg width="120" height="51" viewBox="0 0 120 51" fill="none" xmlns="http://www.w3.org/2000/svg">
<path d="M16.7025 33.2724V33.7427C16.2361 33.8353 15.8835 34.002 15.6448 34.2353C15.4061 34.4686 15.2445 34.8315 15.1674 35.324C15.0903 35.8166 15.0499 36.5091 15.0499 37.3979V49.8705C14.8185 49.8408 14.5651 49.8223 14.2933 49.8223C14.0216 49.8223 13.7314 49.8371 13.4229 49.8705L3.12516 38.5237V45.2747C3.12516 46.3227 3.16923 47.1226 3.2537 47.6781C3.33817 48.2336 3.5475 48.6336 3.8817 48.8743C4.2159 49.115 4.74475 49.2928 5.47558 49.4001V49.8705C5.16709 49.8408 4.76311 49.8186 4.26732 49.8112C3.77152 49.8038 3.30511 49.8001 2.87175 49.8001C2.53021 49.8001 2.18132 49.8038 1.82508 49.8112C1.46885 49.8186 1.17504 49.8371 0.940002 49.8705V49.4001C1.4211 49.2928 1.77734 49.1224 2.00871 48.8965C2.24008 48.6706 2.39432 48.3077 2.47512 47.8077C2.55224 47.3078 2.59264 46.619 2.59264 45.745V35.7573C2.59264 35.1796 2.55224 34.7537 2.47512 34.4797C2.398 34.2057 2.24008 34.0205 1.99769 33.9168C1.75898 33.8168 1.40641 33.7576 0.940002 33.7427V33.2724C1.17137 33.2872 1.46517 33.3021 1.82508 33.3206C2.18132 33.3354 2.53021 33.3428 2.87175 33.3428C3.25737 33.3428 3.63931 33.3354 4.01024 33.3206C4.38116 33.3058 4.71536 33.2909 5.00917 33.2724L14.5174 43.4009V37.8682C14.5174 36.8202 14.4733 36.0203 14.3888 35.4648C14.3043 34.9093 14.0987 34.5093 13.7718 34.2575C13.445 34.0094 12.9125 33.8353 12.1669 33.7427V33.2724C12.4754 33.2872 12.8794 33.3021 13.3752 33.3206C13.871 33.3354 14.3374 33.3428 14.7708 33.3428C15.127 33.3428 15.4796 33.3354 15.8284 33.3206C16.1773 33.3058 16.4675 33.2909 16.6988 33.2724H16.7025Z" fill="#C1322E"/>
<path d="M33.093 33.2722V33.7425C32.6266 33.8351 32.274 34.0017 32.0353 34.235C31.7966 34.4683 31.635 34.8312 31.5579 35.3238C31.4807 35.8163 31.4403 36.5088 31.4403 37.3976V43.0488C31.4403 44.019 31.3742 44.9337 31.242 45.7929C31.1098 46.6521 30.8601 47.3964 30.4855 48.0186C30.0815 48.6926 29.4829 49.2221 28.6823 49.6147C27.8853 50.0035 26.8166 50.1998 25.4872 50.1998C24.7747 50.1998 24.0218 50.122 23.2322 49.9665C22.4426 49.8109 21.7375 49.5147 21.1168 49.074C20.5917 48.6852 20.1877 48.2074 19.9086 47.6445C19.6295 47.0816 19.4422 46.4262 19.3504 45.6744C19.2585 44.9226 19.2108 44.0709 19.2108 43.1191V35.7571C19.2108 35.1793 19.1704 34.7535 19.0933 34.4794C19.0162 34.2054 18.8619 34.0202 18.6269 33.9165C18.3955 33.8165 18.0393 33.7573 17.5582 33.7425V33.2722C18.0062 33.287 18.6012 33.3018 19.3357 33.3203C20.0702 33.3351 20.8414 33.3425 21.6494 33.3425C22.4573 33.3425 23.2322 33.3351 23.9741 33.3203C24.7196 33.3055 25.3292 33.2907 25.8103 33.2722V33.7425C25.2852 33.7573 24.8849 33.8165 24.6131 33.9165C24.3413 34.0165 24.1614 34.2054 24.0659 34.4794C23.9741 34.7535 23.9263 35.1793 23.9263 35.7571V45.3226C23.9263 46.0892 23.9888 46.7335 24.1136 47.2557C24.2385 47.7779 24.4185 48.1963 24.6608 48.5111C24.8996 48.8222 25.2044 49.0481 25.568 49.1777C25.9315 49.311 26.3539 49.3777 26.835 49.3777C27.8743 49.3777 28.6859 49.1221 29.2772 48.6148C29.8648 48.1074 30.2835 47.3964 30.5332 46.4817C30.7793 45.567 30.9041 44.5079 30.9041 43.3043V37.8642C30.9041 36.8162 30.8601 36.0163 30.7756 35.4608C30.6911 34.9053 30.4855 34.5054 30.1586 34.2535C29.8318 34.0054 29.2993 33.8314 28.5537 33.7388V33.2685C28.8622 33.2833 29.2662 33.2981 29.762 33.3166C30.2578 33.3314 30.7242 33.3388 31.1576 33.3388C31.5138 33.3388 31.8664 33.3314 32.2152 33.3166C32.5641 33.3018 32.8543 33.287 33.0856 33.2685L33.093 33.2722Z" fill="#C1322E"/>
<path d="M49.0906 33.2722C49.0281 34.1943 48.9877 35.0868 48.962 35.9459C48.94 36.8051 48.929 37.4606 48.929 37.9161C48.929 38.2457 48.9363 38.5567 48.951 38.853C48.9657 39.1493 48.9804 39.4011 48.9987 39.6048H48.4626C48.1063 38.1346 47.6766 36.9792 47.1735 36.1348C46.6704 35.2905 46.1342 34.6942 45.5686 34.3424C45.003 33.9906 44.4411 33.8166 43.8829 33.8166H43.8609V47.2261C43.8609 47.8668 43.927 48.3445 44.0592 48.6555C44.1914 48.9666 44.4411 49.1703 44.8157 49.2666C45.1867 49.3592 45.7302 49.4073 46.4427 49.4073V49.8776C45.8991 49.8628 45.1683 49.848 44.2465 49.8295C43.3247 49.8147 42.3588 49.8073 41.3525 49.8073C40.3463 49.8073 39.4832 49.8147 38.6312 49.8295C37.7792 49.8443 37.0887 49.8591 36.5636 49.8776V49.4073C37.276 49.4073 37.8196 49.3592 38.1905 49.2666C38.5614 49.174 38.8148 48.9703 38.947 48.6555C39.0792 48.3445 39.1453 47.8668 39.1453 47.2261V33.8166H39.1233C38.5651 33.8166 38.0032 33.9906 37.4376 34.3424C36.872 34.6942 36.3395 35.2868 35.8437 36.1237C35.3479 36.9606 34.9146 38.1198 34.5437 39.6048H34.0075C34.0369 39.4011 34.0589 39.153 34.0662 38.853C34.0736 38.5567 34.0773 38.242 34.0773 37.9161C34.0773 37.4643 34.0662 36.8051 34.0405 35.9459C34.0185 35.0868 33.9744 34.1943 33.912 33.2722C34.6575 33.287 35.4765 33.3018 36.3763 33.3203C37.276 33.3351 38.1758 33.3425 39.0719 33.3425H43.9527C44.8525 33.3425 45.7522 33.3351 46.6483 33.3203C47.5481 33.3055 48.3597 33.2907 49.0906 33.2722Z" fill="#C1322E"/>
<path d="M50.2768 33.2722C50.7248 33.287 51.3198 33.3018 52.0543 33.3203C52.7888 33.3351 53.5307 33.3425 54.2762 33.3425C55.0217 33.3425 55.7966 33.3351 56.5091 33.3203C57.2216 33.3055 57.7247 33.2981 58.0222 33.2981C59.6014 33.2981 60.9088 33.4462 61.9408 33.7425C62.9727 34.0388 63.744 34.4906 64.2545 35.0905C64.7649 35.6904 65.022 36.4533 65.022 37.3754C65.022 37.9531 64.9045 38.516 64.6731 39.0641C64.4417 39.6122 64.0451 40.1084 63.4869 40.5528C62.9287 40.9972 62.1648 41.349 61.1952 41.6082C60.2257 41.8675 58.9991 41.9934 57.5117 41.9934H55.2788V41.5231H57.2766C58.0662 41.5231 58.6685 41.3453 59.0799 40.9972C59.4912 40.6454 59.7703 40.1751 59.9172 39.59C60.0641 39.0048 60.1375 38.3531 60.1375 37.6309C60.1375 36.3977 59.9723 35.4386 59.6381 34.7609C59.3039 34.0795 58.7273 33.7425 57.9046 33.7425C57.3758 33.7425 57.0379 33.8758 56.88 34.1425C56.7258 34.4091 56.6486 34.9461 56.6486 35.7608V47.389C56.6486 47.9519 56.6927 48.3741 56.7772 48.6555C56.8616 48.937 57.0232 49.1259 57.2546 49.2184C57.486 49.311 57.8349 49.374 58.3013 49.4073V49.8776C57.8532 49.848 57.273 49.8258 56.5678 49.8184C55.8627 49.811 55.1466 49.8073 54.4157 49.8073C53.5784 49.8073 52.7925 49.811 52.0543 49.8184C51.3198 49.8258 50.7248 49.8443 50.2768 49.8776V49.4073C50.7579 49.3777 51.1141 49.3147 51.3455 49.2184C51.5769 49.1259 51.7311 48.937 51.8119 48.6555C51.8927 48.3741 51.9294 47.9519 51.9294 47.389V35.7608C51.9294 35.1831 51.889 34.7572 51.8119 34.4832C51.7348 34.2091 51.5769 34.0239 51.3345 33.9203C51.0958 33.8203 50.7432 33.761 50.2768 33.7462V33.2759V33.2722ZM55.1356 41.5934C55.6938 41.6082 56.219 41.6416 56.7147 41.686C57.2105 41.7341 57.6696 41.7749 58.0883 41.8156C58.5069 41.8564 58.8632 41.8823 59.157 41.8971C60.817 41.9749 62.0583 42.2637 62.8883 42.7637C63.7183 43.2636 64.2251 43.9968 64.4124 44.9671L64.9008 47.4038C65.0257 47.9816 65.1652 48.3815 65.3195 48.6C65.4737 48.8185 65.6831 48.9296 65.9475 48.9296C66.1017 48.9296 66.2339 48.9074 66.3441 48.8592C66.4506 48.8111 66.5608 48.7333 66.671 48.6259L66.9721 48.9296C66.491 49.4147 65.9695 49.748 65.404 49.9258C64.8384 50.1035 64.1994 50.1961 63.4869 50.1961C62.4806 50.1961 61.6653 50.0109 61.0447 49.6443C60.424 49.2777 60.0457 48.6185 59.9062 47.6631L59.5573 45.3189C59.4655 44.6782 59.348 44.1079 59.2084 43.608C59.0688 43.1081 58.8815 42.7118 58.6502 42.423C58.4188 42.1341 58.0993 41.9897 57.699 41.9897H55.187L55.1392 41.5897L55.1356 41.5934Z" fill="#C1322E"/>
<path d="M80.0354 33.2722C79.9729 34.0536 79.9289 34.809 79.9068 35.5349C79.8848 36.2607 79.8738 36.8199 79.8738 37.2125C79.8738 37.542 79.8811 37.8531 79.8958 38.1494C79.9105 38.4456 79.9252 38.6975 79.9435 38.9011H79.4074C79.2201 37.605 78.9116 36.5829 78.4782 35.8422C78.0449 35.1016 77.538 34.5757 76.9541 34.2721C76.3738 33.9684 75.7642 33.8166 75.1289 33.8166H74.8277C74.4237 33.8166 74.1226 33.8499 73.9206 33.9202C73.7186 33.9906 73.5827 34.1276 73.5129 34.3313C73.4432 34.535 73.4064 34.8535 73.4064 35.2942V47.8593C73.4064 48.2815 73.4432 48.5963 73.5129 48.8074C73.5827 49.0185 73.7186 49.1592 73.9206 49.2295C74.1226 49.2999 74.4237 49.3332 74.8277 49.3332H75.5953C76.1058 49.3332 76.6456 49.1666 77.2112 48.8296C77.7768 48.4926 78.2983 47.9186 78.7794 47.1076C79.2605 46.2966 79.624 45.1856 79.8738 43.7783H80.41C80.3622 44.3412 80.3402 45.0597 80.3402 45.9336C80.3402 46.3262 80.3475 46.8817 80.3622 47.6112C80.3769 48.3371 80.4247 49.0925 80.5018 49.8739C79.7122 49.8443 78.8198 49.8221 77.8282 49.8147C76.8366 49.8073 75.9515 49.8035 75.1766 49.8035H73.5827C72.94 49.8035 72.2423 49.8073 71.4894 49.8147C70.7365 49.8221 69.9763 49.8295 69.2124 49.8369C68.4448 49.8443 67.7214 49.8554 67.0383 49.8702V49.3999C67.5194 49.3703 67.8756 49.3073 68.107 49.211C68.3383 49.1184 68.4926 48.9296 68.5734 48.6481C68.6542 48.3667 68.6909 47.9445 68.6909 47.3816V35.7534C68.6909 35.1757 68.6505 34.7498 68.5734 34.4757C68.4963 34.2017 68.3383 34.0165 68.096 33.9128C67.8572 33.8129 67.5047 33.7536 67.0383 33.7388V33.2685C67.7214 33.2833 68.4448 33.2944 69.2124 33.3018C69.98 33.3092 70.7402 33.3166 71.4894 33.324C72.2423 33.3314 72.94 33.3351 73.5827 33.3351H75.1766C75.8891 33.3351 76.7007 33.3351 77.6078 33.324C78.5149 33.3166 79.3229 33.2981 80.039 33.2648L80.0354 33.2722ZM76.664 41.2897V41.7601H72.7123V41.2897H76.664ZM77.3361 38.1938C77.2736 39.0863 77.2479 39.764 77.2553 40.2343C77.2626 40.7046 77.2663 41.1342 77.2663 41.5231C77.2663 41.9119 77.2736 42.3452 77.2883 42.8118C77.303 43.2821 77.3434 43.9598 77.4058 44.8523H76.8696C76.7778 44.2746 76.5869 43.7487 76.3004 43.2821C76.0139 42.8118 75.6467 42.4415 75.195 42.1674C74.7469 41.8934 74.2254 41.7564 73.6378 41.7564V41.286C74.0712 41.286 74.4678 41.1935 74.824 41.0046C75.1803 40.8157 75.4961 40.5676 75.7642 40.2528C76.036 39.9418 76.26 39.6048 76.44 39.2455C76.6162 38.8863 76.7374 38.5345 76.7999 38.1901H77.3361V38.1938Z" fill="#C1322E"/>
<path d="M90.4029 33.2722V33.7425C89.8777 33.7573 89.4774 33.8165 89.2056 33.9165C88.9339 34.0165 88.7539 34.2054 88.6584 34.4794C88.5666 34.7535 88.5189 35.1793 88.5189 35.7571V47.8556C88.5189 48.2778 88.5483 48.5926 88.6107 48.8037C88.6731 49.0147 88.787 49.1555 88.9596 49.2258C89.1285 49.2962 89.3783 49.3295 89.7051 49.3295H90.4727C90.8766 49.3295 91.31 49.174 91.7728 48.8592C92.2392 48.5481 92.6909 48.1185 93.1316 47.5705C93.5723 47.0224 93.9579 46.4039 94.2811 45.7077C94.6079 45.0115 94.8393 44.2894 94.9789 43.5376H95.5151C95.4673 44.1005 95.4453 44.8189 95.4453 45.6929C95.4453 46.1003 95.4526 46.6891 95.4673 47.4631C95.482 48.2371 95.5297 49.037 95.6069 49.8665C94.8173 49.8369 93.9249 49.8146 92.9333 49.8072C91.9417 49.7998 91.0566 49.7961 90.2817 49.7961H88.6878C88.0451 49.7961 87.3473 49.7998 86.5945 49.8072C85.8416 49.8146 85.0814 49.8221 84.3175 49.8295C83.55 49.8369 82.8265 49.848 82.1434 49.8628V49.3925C82.6245 49.3628 82.9807 49.2999 83.2121 49.2036C83.4434 49.111 83.5977 48.9222 83.6785 48.6407C83.7593 48.3593 83.796 47.9371 83.796 47.3742V35.7459C83.796 35.1682 83.7556 34.7424 83.6785 34.4683C83.6014 34.1943 83.4434 34.0091 83.2011 33.9054C82.9623 33.8054 82.6098 33.7462 82.1434 33.7314V33.261C82.5914 33.2759 83.1864 33.2907 83.9209 33.3092C84.6554 33.324 85.445 33.3314 86.2823 33.3314C87.0572 33.3314 87.8174 33.324 88.5593 33.3092C89.3048 33.2944 89.9144 33.2796 90.3956 33.261L90.4029 33.2722Z" fill="#C1322E"/>
<path d="M104.957 33.2722V33.7425C104.432 33.7573 104.032 33.8165 103.76 33.9165C103.488 34.0165 103.308 34.2054 103.213 34.4794C103.121 34.7535 103.073 35.1793 103.073 35.7571V47.8556C103.073 48.2778 103.102 48.5926 103.165 48.8037C103.227 49.0147 103.341 49.1555 103.514 49.2258C103.683 49.2962 103.932 49.3295 104.259 49.3295H105.027C105.431 49.3295 105.864 49.174 106.327 48.8592C106.793 48.5481 107.245 48.1185 107.686 47.5705C108.126 47.0224 108.512 46.4039 108.835 45.7077C109.162 45.0115 109.394 44.2894 109.533 43.5376H110.069C110.022 44.1005 109.999 44.8189 109.999 45.6929C109.999 46.1003 110.007 46.6891 110.022 47.4631C110.036 48.2371 110.084 49.037 110.161 49.8665C109.371 49.8369 108.479 49.8146 107.487 49.8072C106.496 49.7998 105.611 49.7961 104.836 49.7961H103.242C102.599 49.7961 101.902 49.7998 101.149 49.8072C100.396 49.8146 99.6356 49.8221 98.8717 49.8295C98.1042 49.8369 97.3807 49.848 96.6976 49.8628V49.3925C97.1787 49.3628 97.5349 49.2999 97.7663 49.2036C97.9976 49.111 98.1519 48.9222 98.2327 48.6407C98.3135 48.3593 98.3502 47.9371 98.3502 47.3742V35.7459C98.3502 35.1682 98.3098 34.7424 98.2327 34.4683C98.1556 34.1943 97.9976 34.0091 97.7553 33.9054C97.5165 33.8054 97.164 33.7462 96.6976 33.7314V33.261C97.1456 33.2759 97.7406 33.2907 98.4751 33.3092C99.2096 33.324 99.9992 33.3314 100.837 33.3314C101.611 33.3314 102.372 33.324 103.113 33.3092C103.859 33.2944 104.469 33.2796 104.95 33.261L104.957 33.2722Z" fill="#C1322E"/>
<path d="M119.28 33.2722V33.7425C118.814 33.7573 118.461 33.8166 118.222 33.9166C117.98 34.0165 117.822 34.2054 117.745 34.4794C117.668 34.7535 117.627 35.1794 117.627 35.7571V47.3853C117.627 47.9482 117.671 48.3704 117.756 48.6518C117.84 48.9333 118.002 49.1222 118.233 49.2147C118.465 49.3073 118.814 49.3703 119.28 49.4036V49.8739C118.832 49.8443 118.252 49.8221 117.547 49.8147C116.841 49.8073 116.125 49.8036 115.394 49.8036C114.557 49.8036 113.771 49.8073 113.037 49.8147C112.298 49.8221 111.707 49.8406 111.259 49.8739V49.4036C111.74 49.374 112.096 49.311 112.328 49.2147C112.559 49.1222 112.713 48.9333 112.794 48.6518C112.871 48.3704 112.912 47.9482 112.912 47.3853V35.7571C112.912 35.1794 112.871 34.7535 112.794 34.4794C112.717 34.2054 112.559 34.0202 112.317 33.9166C112.074 33.8166 111.726 33.7573 111.259 33.7425V33.2722C111.707 33.287 112.302 33.3018 113.037 33.3203C113.771 33.3351 114.561 33.3425 115.394 33.3425C116.122 33.3425 116.841 33.3351 117.547 33.3203C118.252 33.3055 118.828 33.2907 119.28 33.2722Z" fill="#C1322E"/>
<path d="M47.5849 14.367C47.4417 14.1115 47.3095 13.8485 47.1809 13.5819C47.0524 13.319 46.9165 13.056 46.7916 12.7894C46.5345 12.2191 46.1673 11.7265 45.7707 11.3155C45.5687 11.1118 45.3483 10.934 45.117 10.7859C44.8929 10.6341 44.6579 10.5119 44.4155 10.423C43.8426 10.2193 43.2586 10.0008 42.6967 9.7453C42.1312 9.49348 41.5472 9.23055 40.9854 8.92688C41.1029 9.4083 41.2534 9.86751 41.3893 10.3415C41.5289 10.8118 41.7015 11.2599 41.8557 11.7154C41.9916 12.1191 42.1973 12.4746 42.4103 12.8005C42.5205 12.9634 42.6343 13.1153 42.7518 13.2597C42.8767 13.3967 43.0089 13.5263 43.1411 13.6411C43.4092 13.8707 43.6883 14.0559 43.9748 14.1818C44.2612 14.3077 44.5587 14.3707 44.8489 14.3781C45.7707 14.4003 46.6741 14.4003 47.5849 14.3596V14.367Z" fill="#E9C75B"/>
<path d="M44.0813 11.7414C45.1537 12.0561 46.013 12.7153 46.6227 13.2893C46.9312 13.5745 47.1662 13.8448 47.3278 14.0448C47.4967 14.2411 47.5849 14.367 47.5849 14.367C46.6704 14.4077 45.7707 14.4077 44.8489 14.3855C44.5624 14.3781 44.2649 14.3114 43.9748 14.1892C43.6883 14.0633 43.4092 13.8782 43.1411 13.6486C43.0089 13.5338 42.8767 13.4041 42.7518 13.2671C42.6306 13.1264 42.5168 12.9709 42.4103 12.8079C42.1973 12.4783 41.9916 12.1265 41.8557 11.7229C41.6978 11.2636 41.5252 10.8156 41.3893 10.3489C41.2534 9.87863 41.1029 9.41572 40.9854 8.9343C40.9854 8.9343 41 8.96763 41.0257 9.03058C41.0515 9.09354 41.0919 9.18241 41.1543 9.28611C41.2755 9.5009 41.4554 9.79345 41.7052 10.1119C41.9476 10.4341 42.2818 10.7563 42.6784 11.0489C42.8767 11.1933 43.0897 11.3303 43.3211 11.4488C43.5561 11.5673 43.8132 11.6636 44.0813 11.7414Z" fill="#D0B25A"/>
<path d="M48.0035 14.1411C47.8603 13.8893 47.7318 13.63 47.6032 13.3671C47.4747 13.1079 47.3425 12.8487 47.2176 12.5857C46.9642 12.0228 46.8247 11.4303 46.8504 10.8711C46.8577 10.5934 46.8981 10.323 46.9716 10.0749C47.0524 9.82308 47.1625 9.58978 47.3058 9.3861C47.64 8.90097 47.9705 8.43806 48.3377 7.98627C48.705 7.53817 49.0539 7.10859 49.4469 6.70123C49.524 7.02712 49.6378 7.35671 49.7296 7.6826C49.8251 8.01219 49.9573 8.33808 50.0638 8.66767C50.1557 8.95652 50.2475 9.24908 50.2732 9.54534C50.2879 9.69347 50.2952 9.8416 50.2915 9.98973C50.2915 10.1379 50.2915 10.2823 50.2732 10.4267C50.2401 10.7156 50.1703 10.997 50.0602 11.2637C49.9537 11.5266 49.8215 11.7747 49.6415 11.9895C49.0796 12.682 48.5177 13.4078 47.9962 14.1411H48.0035Z" fill="#E9C75B"/>
<path d="M48.3671 10.0194C47.7501 10.897 47.6436 11.9414 47.7097 12.7561C47.7465 13.1597 47.8162 13.5115 47.8787 13.756C47.9484 14.0004 48.0035 14.1411 48.0035 14.1411C48.525 13.4041 49.0833 12.682 49.6488 11.9895C49.8251 11.771 49.961 11.5266 50.0675 11.2637C50.174 10.997 50.2475 10.7156 50.2805 10.4267C50.2952 10.2823 50.3025 10.1379 50.2989 9.98973C50.2989 9.8416 50.2989 9.69347 50.2805 9.54534C50.2548 9.24908 50.163 8.95652 50.0712 8.66767C49.961 8.33808 49.8288 8.01219 49.737 7.6826C49.6452 7.35301 49.5313 7.02712 49.4542 6.70123C49.4542 6.70123 49.4542 6.72716 49.4542 6.77159C49.4542 6.81974 49.4542 6.8864 49.4505 6.97527C49.4468 7.14933 49.4248 7.40115 49.3587 7.70482C49.2852 8.00848 49.2045 8.3677 49.0465 8.76025C48.9694 8.95652 48.8739 9.1602 48.7564 9.37129C48.6462 9.58237 48.5214 9.79716 48.3671 10.0157V10.0194Z" fill="#D0B25A"/>
<path d="M50.4347 18.9405L49.9279 18.2221L49.4395 17.4888C48.7564 16.4482 47.7501 15.715 46.7402 15.5409C46.1489 15.4409 45.5429 15.3298 44.9406 15.2002C44.3457 15.0669 43.7397 14.9188 43.1337 14.7595L43.7617 16.0149L44.4265 17.237C45.2307 18.6554 46.5933 19.4775 47.7281 19.3331C48.6315 19.2257 49.5423 19.0886 50.431 18.9405H50.4347Z" fill="#E9C75B"/>
<path d="M46.619 16.8741C47.1699 16.937 47.6804 17.1 48.1394 17.3036C48.3671 17.4073 48.5801 17.5221 48.7821 17.6406C48.9841 17.7591 49.1714 17.8814 49.3404 17.9999C49.6782 18.2443 49.95 18.4776 50.141 18.6479C50.3319 18.822 50.4348 18.9368 50.4348 18.9368C49.546 19.0849 48.6352 19.2256 47.7318 19.3293C46.597 19.4738 45.2345 18.6516 44.4302 17.2333L43.7655 16.0112L43.1375 14.7558C43.1375 14.7558 43.4496 15.2187 44.0335 15.7298C44.6322 16.226 45.5099 16.7556 46.619 16.8704V16.8741Z" fill="#D0B25A"/>
<path d="M50.8203 18.6627L50.3209 17.9517L49.8398 17.2259C49.1604 16.189 49.0061 14.941 49.4248 14.0263C49.6745 13.4856 49.9206 12.9597 50.185 12.445C50.4568 11.9265 50.7359 11.4229 51.0187 10.9303L51.5034 11.9006L52.0286 12.8634C52.6603 13.9781 52.7374 15.3261 52.1645 16.3001C51.6944 17.074 51.2574 17.8591 50.824 18.6627H50.8203Z" fill="#E9C75B"/>
<path d="M50.578 14.4929C50.343 14.9817 50.2401 15.489 50.2218 15.9742C50.2108 16.2149 50.2144 16.4556 50.2365 16.6815C50.2622 16.9074 50.2989 17.1222 50.343 17.3222C50.4274 17.7221 50.5486 18.0591 50.6478 18.2924C50.7469 18.5257 50.8167 18.6627 50.8167 18.6627C51.2501 17.8591 51.6871 17.0777 52.1572 16.3001C52.7338 15.3261 52.6567 13.9781 52.0213 12.8634L51.4961 11.9006L51.0114 10.9303C51.0114 10.9303 51.1362 11.3377 51.1252 11.9858C51.1362 12.6301 51.0224 13.5189 50.5707 14.4929H50.578Z" fill="#D0B25A"/>
<path d="M53.7804 23.1548C53.3911 22.7141 53.0165 22.266 52.6419 21.8179C51.8523 20.8588 50.7689 20.244 49.7442 20.2107C48.5397 20.17 47.3204 20.0848 46.0938 19.9478C46.3472 20.3255 46.5969 20.707 46.8613 21.0736C47.1221 21.4476 47.3828 21.8142 47.6546 22.1734C48.6021 23.4511 50.0197 24.1066 51.1361 23.8362C52.0249 23.6288 52.91 23.3992 53.7804 23.1548Z" fill="#E9C75B"/>
<path d="M49.7736 21.5402C50.8827 21.5217 51.8706 21.9364 52.5978 22.3401C52.9614 22.5438 53.2552 22.7475 53.4608 22.8993C53.6665 23.0511 53.7804 23.1548 53.7804 23.1548C52.91 23.3955 52.0249 23.6251 51.1361 23.8362C50.0197 24.1066 48.6021 23.4511 47.6546 22.1734C47.3828 21.8142 47.1221 21.4439 46.8613 21.0736C46.5969 20.707 46.3472 20.3255 46.0938 19.9478C46.0938 19.9478 46.1819 20.0478 46.3508 20.2033C46.5198 20.3588 46.7658 20.5625 47.0927 20.7625C47.7317 21.1699 48.6645 21.5587 49.7736 21.5439V21.5402Z" fill="#D0B25A"/>
<path d="M54.1367 22.8363C53.751 22.3994 53.3801 21.955 53.0055 21.5106C52.2196 20.5551 51.9221 19.3293 52.2159 18.3702C52.5648 17.2333 52.9431 16.126 53.3728 15.0484C53.5784 15.3594 53.7841 15.6705 54.0044 15.9779C54.2175 16.2853 54.4378 16.5926 54.6655 16.8963C55.4514 17.9554 55.6828 19.3108 55.2164 20.3403C54.8381 21.1625 54.4782 21.992 54.133 22.8363H54.1367Z" fill="#E9C75B"/>
<path d="M53.4278 18.7035C53.09 19.733 53.2552 20.7773 53.5233 21.555C53.6555 21.9439 53.8061 22.2661 53.931 22.4883C54.0522 22.7104 54.1403 22.8401 54.1403 22.8401C54.4892 21.9957 54.8454 21.1662 55.2237 20.3441C55.6865 19.3146 55.4551 17.9592 54.6728 16.9C54.4451 16.5964 54.2285 16.2927 54.0118 15.9816C53.7914 15.6742 53.5858 15.3632 53.3801 15.0521C53.3801 15.0521 53.4242 15.1521 53.4829 15.3372C53.538 15.5224 53.6041 15.7853 53.6555 16.1112C53.751 16.7667 53.7731 17.674 53.4352 18.7035H53.4278Z" fill="#D0B25A"/>
<path d="M57.5117 26.9803C57.071 26.5841 56.6524 26.1804 56.2337 25.7656C55.3486 24.8917 54.2138 24.388 53.1928 24.4547C51.9919 24.5399 50.78 24.5843 49.5497 24.5917C50.1226 25.2805 50.7065 25.9582 51.3088 26.6211C52.3628 27.7913 53.8539 28.3024 54.9373 27.9283C55.804 27.6321 56.6634 27.321 57.5081 26.9803H57.5117Z" fill="#E9C75B"/>
<path d="M53.3508 25.773C54.4489 25.6471 55.4735 25.9582 56.2374 26.2915C56.6193 26.4581 56.9352 26.6285 57.1555 26.7581C57.3759 26.8877 57.5044 26.9766 57.5044 26.9766C56.6597 27.3173 55.8003 27.6283 54.9336 27.9246C53.8502 28.2986 52.3592 27.7839 51.3052 26.6173C50.7029 25.9582 50.1189 25.2768 49.546 24.588C49.546 24.588 49.6452 24.6768 49.8288 24.8101C50.0124 24.9398 50.2732 25.1175 50.6147 25.2805C51.2905 25.6101 52.2453 25.9026 53.3508 25.773Z" fill="#D0B25A"/>
<path d="M57.8239 26.6174C57.3979 26.2359 56.9792 25.8323 56.5679 25.4212C55.6902 24.551 55.2752 23.3622 55.4735 22.3734C55.7012 21.2069 55.9693 20.0589 56.2668 18.9331C56.7552 19.5182 57.251 20.0959 57.7652 20.6588C58.6576 21.6513 59.0175 22.9586 58.6502 24.0288C58.3564 24.8805 58.0736 25.7397 57.8239 26.6137V26.6174Z" fill="#E9C75B"/>
<path d="M56.7111 22.5882C56.4761 23.6474 56.7405 24.6732 57.082 25.4138C57.251 25.7841 57.4346 26.0878 57.5815 26.2952C57.7247 26.5063 57.8239 26.6174 57.8239 26.6174C58.0736 25.7434 58.3564 24.8842 58.6502 24.0325C59.0175 22.9622 58.6575 21.655 57.7651 20.6625C57.251 20.0996 56.7552 19.5219 56.2667 18.9368C56.2667 18.9368 56.3255 19.0331 56.4026 19.2108C56.4834 19.3886 56.5752 19.6515 56.6634 19.9737C56.8323 20.6218 56.9461 21.5291 56.7148 22.5882H56.7111Z" fill="#D0B25A"/>
<path d="M43.2146 6.7975C43.1632 6.43458 43.1374 6.07166 43.1448 5.71985C43.1705 5.36433 43.2219 5.01993 43.299 4.69404C43.3688 4.37186 43.4974 4.06449 43.6479 3.78674C43.7948 3.509 43.9674 3.26088 44.1584 3.04979C44.2723 2.91648 44.4118 2.78686 44.5367 2.66095C44.6615 2.79056 44.7754 2.91277 44.9113 3.03868C45.756 3.83488 46.2958 4.91994 46.6043 6.13091C46.6263 6.2309 46.6447 6.32718 46.6704 6.42717L46.7512 6.71973L46.9165 7.30484C46.9716 7.51963 47.0009 7.73813 46.9863 7.94551C46.9716 8.15659 46.9128 8.35657 46.8137 8.52692L46.586 8.93058L46.3729 9.34164C46.2334 9.61568 46.0938 9.89713 45.958 10.186C45.6752 10.0564 45.3924 9.91935 45.1059 9.77862L44.6762 9.56383L44.2576 9.33423C44.0776 9.23424 43.9123 9.075 43.7765 8.88243C43.6406 8.68616 43.5304 8.45656 43.4827 8.20103L43.3394 7.50482L43.2697 7.15671C43.2476 7.03821 43.2329 6.9197 43.2146 6.8049V6.7975Z" fill="#E9C75B"/>
<path d="M43.2146 6.79749C43.1595 6.42346 43.1338 6.04943 43.1448 5.68651C43.1705 5.31989 43.2292 4.96808 43.3137 4.63479C43.3137 4.86439 43.3247 5.09399 43.3431 5.3273L43.3761 5.67911L43.4276 6.02721L43.5341 6.72343C43.5671 6.97895 43.6516 7.21596 43.7654 7.41964C43.8756 7.62332 44.0078 7.79367 44.1511 7.91218C44.5881 8.2788 45.0765 8.60469 45.5319 8.92687C45.7486 8.3973 45.9432 7.88996 46.2003 7.39002C46.2774 7.23078 46.3252 7.03821 46.3362 6.83082C46.3436 6.62344 46.3215 6.40495 46.2811 6.18275L46.1563 5.57912L46.0938 5.27916L46.0498 4.97549C46.0204 4.77181 45.98 4.57553 45.9322 4.38297C46.0865 4.6496 46.215 4.93105 46.3178 5.22361C46.4354 5.51616 46.5382 5.81613 46.6043 6.13091C46.6263 6.23089 46.6447 6.32718 46.6704 6.42717L46.7512 6.71973L46.9165 7.30484C46.9716 7.51963 47.0009 7.73812 46.9862 7.94551C46.9716 8.15659 46.9128 8.35657 46.8136 8.52692L46.5859 8.93057L46.3729 9.34164C46.2334 9.61568 46.0938 9.89713 45.9579 10.186C45.6752 10.0564 45.3924 9.91935 45.1059 9.77862L44.6762 9.56383L44.2576 9.33423C44.0776 9.23424 43.9123 9.075 43.7765 8.88243C43.6406 8.68616 43.5304 8.45656 43.4826 8.20103L43.3394 7.50482L43.2696 7.15671C43.2476 7.03821 43.2329 6.9197 43.2146 6.8049V6.79749Z" fill="#D0B25A"/>
<path d="M72.5875 11.8858C72.7308 11.6303 72.863 11.3673 72.9915 11.1007C73.12 10.8378 73.2559 10.5748 73.3808 10.3082C73.6379 9.73791 74.0051 9.24538 74.4018 8.83431C74.6037 8.63064 74.8241 8.45288 75.0555 8.30475C75.2795 8.15291 75.5145 8.03071 75.7569 7.94183C76.3298 7.73815 76.9138 7.51966 77.4757 7.26413C78.0412 7.01231 78.6252 6.74938 79.1871 6.44571C79.0695 6.92713 78.919 7.38634 78.7831 7.86036C78.6435 8.33067 78.4709 8.77877 78.3167 9.23427C78.1808 9.63792 77.9751 9.99344 77.7621 10.3193C77.6519 10.4823 77.5381 10.6341 77.4206 10.7785C77.2957 10.9155 77.1635 11.0452 77.0313 11.16C76.7632 11.3896 76.4841 11.5747 76.1976 11.7006C75.9112 11.8266 75.6137 11.8895 75.3236 11.8969C74.4018 11.9191 73.4983 11.9191 72.5875 11.8784V11.8858Z" fill="#E9C75B"/>
<path d="M76.0911 9.25648C75.0187 9.57125 74.1594 10.2304 73.5497 10.8044C73.2412 11.0896 73.0062 11.3599 72.8446 11.5599C72.6757 11.7562 72.5875 11.8821 72.5875 11.8821C73.502 11.9228 74.4018 11.9228 75.3236 11.9006C75.61 11.8932 75.9075 11.8265 76.1976 11.7043C76.4841 11.5784 76.7632 11.3933 77.0313 11.1637C77.1635 11.0489 77.2957 10.9192 77.4206 10.7822C77.5418 10.6415 77.6556 10.486 77.7621 10.323C77.9751 9.99343 78.1808 9.64162 78.3167 9.23796C78.4746 8.77875 78.6472 8.33066 78.7831 7.86405C78.919 7.39373 79.0695 6.93083 79.1871 6.4494C79.1871 6.4494 79.1724 6.48273 79.1467 6.54569C79.121 6.60864 79.0806 6.69752 79.0181 6.80121C78.8969 7.016 78.717 7.30856 78.4673 7.62704C78.2249 7.94922 77.8907 8.27141 77.494 8.56397C77.2957 8.70839 77.0827 8.84541 76.8513 8.96392C76.6163 9.08242 76.3592 9.17871 76.0911 9.25648Z" fill="#D0B25A"/>
<path d="M72.1688 11.6562C72.312 11.4044 72.4406 11.1451 72.5691 10.8822C72.6976 10.623 72.8299 10.3638 72.9547 10.1008C73.2081 9.53793 73.3477 8.94541 73.322 8.38622C73.3146 8.10847 73.2742 7.83813 73.2008 7.59001C73.12 7.33819 73.0098 7.10489 72.8666 6.90121C72.5324 6.41608 72.2019 5.95317 71.8346 5.50137C71.4673 5.05328 71.1185 4.6237 70.7255 4.21634C70.6484 4.54223 70.5345 4.87182 70.4427 5.1977C70.3472 5.52729 70.215 5.85318 70.1085 6.18277C70.0167 6.47163 69.9249 6.76419 69.8992 7.06045C69.8845 7.20858 69.8771 7.35671 69.8808 7.50484C69.8808 7.65297 69.8808 7.7974 69.8992 7.94182C69.9322 8.23068 70.002 8.51213 70.1122 8.77876C70.2187 9.04169 70.3509 9.28981 70.5309 9.5046C71.0928 10.1971 71.6547 10.923 72.1762 11.6562H72.1688Z" fill="#E9C75B"/>
<path d="M71.8052 7.53446C72.4222 8.41214 72.5287 9.45646 72.4626 10.2712C72.4259 10.6748 72.3561 11.0266 72.2937 11.2711C72.2239 11.5155 72.1688 11.6562 72.1688 11.6562C71.6473 10.9192 71.0891 10.1971 70.5235 9.5046C70.3473 9.28611 70.2114 9.04169 70.1049 8.77876C69.9984 8.51213 69.9249 8.23068 69.8919 7.94182C69.8772 7.7974 69.8698 7.65297 69.8735 7.50484C69.8735 7.35671 69.8735 7.20858 69.8919 7.06045C69.9176 6.76419 70.0094 6.47163 70.1012 6.18277C70.2114 5.85318 70.3436 5.52729 70.4354 5.1977C70.5272 4.86811 70.6411 4.54223 70.7182 4.21634C70.7182 4.21634 70.7182 4.24226 70.7182 4.2867C70.7182 4.33484 70.7182 4.4015 70.7218 4.49038C70.7255 4.66443 70.7476 4.91626 70.8137 5.21992C70.8871 5.52359 70.9679 5.88281 71.1258 6.27535C71.203 6.47163 71.2984 6.67531 71.416 6.88639C71.5261 7.09748 71.651 7.31227 71.8052 7.53076V7.53446Z" fill="#D0B25A"/>
<path d="M69.7376 16.4593L70.2444 15.7409L70.7329 15.0077C71.416 13.967 72.4222 13.2338 73.4322 13.0597C74.0235 12.9598 74.6294 12.8487 75.2317 12.719C75.8267 12.5857 76.4326 12.4376 77.0386 12.2784L76.4106 13.5338L75.7459 14.7558C74.9416 16.1742 73.5791 16.9963 72.4443 16.8519C71.5408 16.7445 70.63 16.6075 69.7413 16.4593H69.7376Z" fill="#E9C75B"/>
<path d="M73.5534 14.3892C73.0025 14.4522 72.492 14.6151 72.0329 14.8188C71.8052 14.9225 71.5922 15.0373 71.3902 15.1558C71.1883 15.2743 71.001 15.3965 70.832 15.515C70.4941 15.7594 70.2224 15.9927 70.0314 16.1631C69.8404 16.3371 69.7376 16.4519 69.7376 16.4519C70.6264 16.6001 71.5372 16.7408 72.4406 16.8445C73.5754 16.9889 74.9379 16.1668 75.7422 14.7484L76.4069 13.5263L77.0349 12.2709C77.0349 12.2709 76.7228 12.7338 76.1388 13.2449C75.5402 13.7411 74.6625 14.2707 73.5534 14.3855V14.3892Z" fill="#D0B25A"/>
<path d="M69.352 16.1779L69.8515 15.4669L70.3326 14.741C71.012 13.7041 71.1662 12.4561 70.7476 11.5414C70.4978 11.0007 70.2518 10.4749 69.9873 9.9601C69.7156 9.44164 69.4365 8.938 69.1537 8.44547L68.6689 9.41572L68.1437 10.3786C67.5121 11.4933 67.4349 12.8412 68.0078 13.8152C68.4779 14.5892 68.915 15.3743 69.3483 16.1779H69.352Z" fill="#E9C75B"/>
<path d="M69.5944 12.008C69.8295 12.4968 69.9323 13.0042 69.9506 13.4893C69.9617 13.73 69.958 13.9707 69.936 14.1966C69.9102 14.4225 69.8735 14.6373 69.8295 14.8373C69.745 15.2373 69.6238 15.5742 69.5246 15.8076C69.4255 16.0409 69.3557 16.1779 69.3557 16.1779C68.9223 15.3743 68.4853 14.5929 68.0152 13.8152C67.4386 12.8412 67.5158 11.4933 68.1511 10.3786L68.6763 9.41572L69.161 8.44547C69.161 8.44547 69.0362 8.85282 69.0472 9.5009C69.0362 10.1453 69.15 11.034 69.6018 12.008H69.5944Z" fill="#D0B25A"/>
<path d="M66.3919 20.6699C66.7812 20.2293 67.1558 19.7812 67.5304 19.3331C68.32 18.3739 69.4034 17.7592 70.428 17.7259C71.6326 17.6851 72.8519 17.5999 74.0785 17.4629C73.8251 17.8407 73.5754 18.2221 73.311 18.5887C73.0502 18.9627 72.7895 19.3294 72.5177 19.6886C71.5702 20.9662 70.1526 21.6217 69.0361 21.3513C68.1474 21.144 67.2623 20.9144 66.3919 20.6699Z" fill="#E9C75B"/>
<path d="M70.4024 19.0553C69.2933 19.0368 68.3053 19.4516 67.5782 19.8552C67.2146 20.0589 66.9208 20.2626 66.7151 20.4144C66.5095 20.5663 66.3956 20.6699 66.3956 20.6699C67.266 20.9107 68.1511 21.1403 69.0399 21.3513C70.1563 21.6217 71.5739 20.9662 72.5214 19.6886C72.7932 19.3294 73.0539 18.959 73.3147 18.5887C73.5791 18.2221 73.8288 17.8407 74.0822 17.4629C74.0822 17.4629 73.9941 17.5629 73.8252 17.7184C73.6562 17.874 73.4102 18.0777 73.0833 18.2776C72.4443 18.685 71.5115 19.0738 70.4024 19.059V19.0553Z" fill="#D0B25A"/>
<path d="M66.0394 20.3515C66.425 19.9145 66.7959 19.4701 67.1705 19.0257C67.9565 18.0703 68.2539 16.8445 67.9601 15.8853C67.6112 14.7484 67.233 13.6412 66.8033 12.5635C66.5976 12.8746 66.392 13.1857 66.1716 13.493C65.9586 13.8004 65.7383 14.1078 65.5106 14.4114C64.7246 15.4706 64.4933 16.826 64.9597 17.8555C65.3379 18.6776 65.6979 19.5071 66.0431 20.3515H66.0394Z" fill="#E9C75B"/>
<path d="M66.7445 16.2186C67.0824 17.2481 66.9171 18.2924 66.649 19.0701C66.5168 19.459 66.3662 19.7812 66.2414 20.0034C66.1202 20.2256 66.032 20.3552 66.032 20.3552C65.6831 19.5108 65.3269 18.6813 64.9486 17.8592C64.4859 16.8297 64.7173 15.4743 65.4995 14.4151C65.7272 14.1115 65.9439 13.8078 66.1606 13.4967C66.3809 13.1893 66.5866 12.8783 66.7923 12.5672C66.7923 12.5672 66.7482 12.6672 66.6894 12.8524C66.6343 13.0375 66.5682 13.3004 66.5168 13.6263C66.4213 14.2818 66.3993 15.1891 66.7372 16.2186H66.7445Z" fill="#D0B25A"/>
<path d="M62.6643 24.4954C63.105 24.0992 63.5237 23.6955 63.9423 23.2807C64.8274 22.4068 65.9622 21.9031 66.9832 21.9698C68.1841 22.055 69.3961 22.0994 70.6264 22.1068C70.0534 22.7956 69.4695 23.4733 68.8672 24.1362C67.8132 25.3064 66.3221 25.8175 65.2387 25.4434C64.372 25.1472 63.5127 24.8361 62.668 24.4954H62.6643Z" fill="#E9C75B"/>
<path d="M66.8217 23.2919C65.7236 23.1659 64.6989 23.477 63.9351 23.8103C63.5531 23.977 63.2373 24.1473 63.0169 24.2769C62.7966 24.4065 62.668 24.4954 62.668 24.4954C63.5127 24.8361 64.3721 25.1472 65.2388 25.4435C66.3222 25.8175 67.8132 25.3027 68.8673 24.1362C69.4696 23.477 70.0535 22.7956 70.6264 22.1068C70.6264 22.1068 70.5272 22.1957 70.3436 22.329C70.16 22.4586 69.8992 22.6364 69.5577 22.7993C68.882 23.1289 67.9271 23.4215 66.8217 23.2919Z" fill="#D0B25A"/>
<path d="M62.3522 24.1362C62.7782 23.7548 63.1969 23.3511 63.6082 22.9401C64.486 22.0698 64.901 20.881 64.7026 19.8923C64.4749 18.7257 64.2069 17.5777 63.9094 16.4519C63.4209 17.0371 62.9251 17.6148 62.411 18.1777C61.5186 19.1701 61.1586 20.4774 61.5259 21.5476C61.8197 22.3994 62.1025 23.2585 62.3522 24.1325V24.1362Z" fill="#E9C75B"/>
<path d="M63.4613 20.1034C63.6963 21.1625 63.4319 22.1883 63.0903 22.9289C62.9214 23.2993 62.7378 23.6029 62.5909 23.8103C62.4477 24.0214 62.3485 24.1325 62.3485 24.1325C62.0988 23.2585 61.816 22.3994 61.5222 21.5476C61.1549 20.4774 61.5148 19.1701 62.4073 18.1777C62.9214 17.6148 63.4172 17.0371 63.9056 16.4519C63.9056 16.4519 63.8469 16.5482 63.7698 16.726C63.689 16.9037 63.5972 17.1667 63.509 17.4888C63.3401 18.1369 63.2262 19.0442 63.4576 20.1034H63.4613Z" fill="#D0B25A"/>
<path d="M76.9578 4.31633C77.0092 3.95341 77.0349 3.59049 77.0275 3.23868C77.0018 2.88316 76.9504 2.53876 76.8733 2.21287C76.8035 1.89069 76.675 1.58332 76.5244 1.30557C76.3775 1.02783 76.2049 0.779708 76.0139 0.568622C75.9001 0.435304 75.7605 0.30569 75.6357 0.179779C75.5108 0.309393 75.3969 0.431601 75.2611 0.557512C74.4164 1.35371 73.8765 2.43877 73.568 3.64974C73.546 3.74973 73.5276 3.84601 73.5019 3.946L73.4211 4.23856L73.2559 4.82367C73.2008 5.03846 73.1714 5.25695 73.1861 5.46434C73.2008 5.67542 73.2595 5.8754 73.3587 6.04575L73.5864 6.44941L73.7994 6.86047C73.9389 7.13451 74.0785 7.41596 74.2144 7.70481C74.4972 7.5752 74.78 7.43818 75.0664 7.29745L75.4961 7.08266L75.9148 6.85306C76.0947 6.75307 76.26 6.59383 76.3959 6.40126C76.5318 6.20499 76.6419 5.97539 76.6897 5.71986L76.8329 5.02365L76.9027 4.67554C76.9247 4.55704 76.9394 4.43853 76.9578 4.32373V4.31633Z" fill="#E9C75B"/>
<path d="M76.9578 4.31632C77.0129 3.94229 77.0386 3.56826 77.0275 3.20534C77.0018 2.83872 76.9431 2.48691 76.8586 2.15362C76.8586 2.38322 76.8476 2.61282 76.8292 2.84613L76.7962 3.19794L76.7448 3.54604L76.6383 4.24226C76.6052 4.49778 76.5207 4.73479 76.4069 4.93847C76.2967 5.14215 76.1645 5.3125 76.0213 5.43101C75.5842 5.79763 75.0958 6.12352 74.6404 6.4457C74.4237 5.91613 74.2291 5.40879 73.972 4.90885C73.8949 4.7496 73.8471 4.55704 73.8361 4.34965C73.8288 4.14227 73.8508 3.92378 73.8912 3.70158L74.0161 3.09795L74.0785 2.79798L74.1226 2.49432C74.152 2.29064 74.1923 2.09436 74.2401 1.90179C74.0858 2.16843 73.9573 2.44988 73.8545 2.74244C73.737 3.03499 73.6341 3.33496 73.568 3.64974C73.546 3.74972 73.5276 3.84601 73.5019 3.946L73.4211 4.23855L73.2559 4.82367C73.2008 5.03846 73.1714 5.25695 73.1861 5.46433C73.2008 5.67542 73.2595 5.8754 73.3587 6.04575L73.5864 6.4494L73.7994 6.86047C73.9389 7.13451 74.0785 7.41596 74.2144 7.70481C74.4972 7.5752 74.78 7.43817 75.0664 7.29745L75.4961 7.08266L75.9148 6.85306C76.0947 6.75307 76.26 6.59383 76.3959 6.40126C76.5318 6.20499 76.6419 5.97539 76.6897 5.71986L76.8329 5.02365L76.9027 4.67554C76.9247 4.55703 76.9394 4.43853 76.9578 4.32373V4.31632Z" fill="#D0B25A"/>
</svg>
